<svg width="512" height="512" xmlns="http://www.w3.org/2000/svg">

 <g>
  <title>background</title>
  <rect fill="none" id="canvas_background" height="402" width="582" y="-1" x="-1"/>
 </g>
 <g>
  <title>Layer 1</title>
  <ellipse stroke="#c3fd59" ry="151.414637" rx="158.699186" id="svg_5" cy="243.430891" cx="265.36585" stroke-width="31" fill="none"/>
  <path fill="#c3fd59" id="XMLID_2_" d="m177.047966,152.44065c15,-11.8 24.4,5.4 42.8,23.8s36.4,30.4 23.9,42.9c-13.8,13.8 -26.4,-7.5 -44.8,-25.9s-36.8,-29.1 -21.9,-40.8z"/>
  <path stroke="null" fill="#c3fd59" id="XMLID_1_" d="m247.510568,151.25935c11.8,15 -5.4,24.4 -23.8,42.8s-30.4,36.4 -42.9,23.9c-13.8,-13.8 7.5,-26.4 25.9,-44.8s29.1,-36.8 40.8,-21.9z"/>
  <path fill="#c3fd59" id="XMLID_4_" d="m354.380488,154.381301c11.8,15 -5.4,24.4 -23.8,42.8c-18.4,18.4 -30.4,36.4 -42.9,23.9c-13.8,-13.8 7.5,-26.4 25.9,-44.8s29.1,-36.8 40.8,-21.9z"/>
  <path fill="#c3fd59" id="XMLID_5_" d="m288.080487,152.44065c15,-11.8 24.4,5.4 42.8,23.8c18.4,18.4 36.4,30.4 23.9,42.9c-13.8,13.8 -26.4,-7.5 -44.8,-25.9c-18.5,-18.4 -36.8,-29.1 -21.9,-40.8z"/>
  <ellipse stroke="null" ry="35.902447" rx="41.105694" id="svg_6" cy="312.113825" cx="263.284552" stroke-opacity="null" stroke-width="null" fill="#c3fd59"/>
 </g>
</svg>